<svg width="19" height="15" viewBox="0 0 19 15" fill="none" xmlns="http://www.w3.org/2000/svg">
<path d="M17.4252 6.54256C17.8284 7.06992 17.8284 7.78185 17.4252 8.30836C16.1553 9.96613 13.1085 13.3795 9.55141 13.3795C5.99431 13.3795 2.94755 9.96613 1.67764 8.30836C1.48148 8.05585 1.375 7.74521 1.375 7.42546C1.375 7.10571 1.48148 6.79507 1.67764 6.54256C2.94755 4.88479 5.99431 1.47144 9.55141 1.47144C13.1085 1.47144 16.1553 4.88479 17.4252 6.54256V6.54256Z" stroke="#5E6E78" stroke-opacity="0.37" stroke-width="1.70115" stroke-linecap="round" strokeLinejoin="round"/>
<path d="M9.55124 9.97698C10.9605 9.97698 12.103 8.83454 12.103 7.42526C12.103 6.01598 10.9605 4.87354 9.55124 4.87354C8.14196 4.87354 6.99951 6.01598 6.99951 7.42526C6.99951 8.83454 8.14196 9.97698 9.55124 9.97698Z" stroke="#5E6E78" stroke-opacity="0.37" stroke-width="1.70115" stroke-linecap="round" strokeLinejoin="round"/>
</svg>
