<svg width="633" height="633" viewBox="0 0 633 633" fill="none" xmlns="http://www.w3.org/2000/svg">
<path d="M508.912 141.5C501.678 147.903 493.861 153.589 485.568 158.482C482.658 160.358 479.359 161.518 475.933 161.872C472.506 162.225 469.046 161.763 465.826 160.52C463.408 160.719 460.977 160.355 458.717 159.455C456.458 158.554 454.43 157.141 452.787 155.324C449.484 153.742 446.41 151.708 443.649 149.278C442.886 149.175 442.112 149.175 441.348 149.278C439.211 151.098 437.204 153.073 435.346 155.188C435.008 157.295 435.191 159.454 435.879 161.471C439.379 165.064 443.615 167.825 448.285 169.555C453.52 170.982 451.319 173.801 460.19 185.247C460.36 185.51 460.435 185.825 460.402 186.138C460.369 186.451 460.231 186.743 460.01 186.963C459.79 187.184 459.501 187.32 459.193 187.347C458.885 187.375 458.578 187.293 458.322 187.115C454.993 183.584 452.305 179.478 450.386 174.99C444.183 181.783 436.179 186.572 428.643 191.769C421.508 196.522 414.066 200.778 406.366 204.506C403.531 205.932 403.031 207.223 404.532 210.11C407.366 215.918 405.866 215.748 412.002 213.201C428.109 206.408 433.578 202.06 440.948 202.026C441.882 202.026 442.882 202.026 443.082 203.181C443.282 204.336 442.282 204.709 441.382 204.777C438.747 205.049 438.047 206.883 437.413 209.159C433.611 220.436 425.508 231.372 417.404 242.411C416.204 244.042 416.537 244.993 418.271 246.114C424.774 250.291 424.941 250.461 429.977 244.415C451.386 219.247 446.984 223.051 453.32 217.243C455.388 215.477 456.855 218.16 455.321 219.315C454.767 219.658 454.335 220.173 454.089 220.784C453.843 221.395 453.795 222.071 453.954 222.711C454.098 222.583 454.271 222.494 454.457 222.453C454.644 222.411 454.838 222.418 455.021 222.473C456.422 222.915 456.188 225.055 456.422 226.583C458.056 236.569 456.088 246.181 457.689 253.756C457.831 254.547 458.244 255.261 458.855 255.771C459.465 256.281 460.234 256.554 461.024 256.541C463.02 256.743 465.03 256.329 466.793 255.352C468.227 248.118 469.794 240.917 471.095 233.682C471.662 230.659 473.729 228.18 473.529 224.851C473.529 223.594 475.497 224.036 476.631 224.41C481.635 226.544 485.881 230.181 488.803 234.837C489.403 235.618 489.803 236.603 490.403 237.384C491.771 239.252 491.871 242.445 494.005 243.125C494.975 243.409 496.003 243.409 496.973 243.125C498.757 242.264 500.286 240.94 501.408 239.286C493.738 223.832 491.204 219.994 493.238 215.884C495.806 210.552 495.205 212.114 498.107 205.694C500.748 200.389 502.399 194.631 502.976 188.712C503.242 183.583 505.61 184.33 513.78 181.409C552.731 157.803 564.336 147.443 596.084 119.082C599.018 116.399 607.622 108.213 609.856 105.768C611.812 104.027 613.28 101.791 614.112 99.2851C614.944 96.7794 615.109 94.0941 614.592 91.5021C612.057 79.818 602.486 62.8352 586.379 50.3019C582.144 46.9053 579.176 47.5507 576.375 52.136C575.875 52.8833 575.608 53.4946 574.607 54.9891C563.102 79.5462 539.392 113.682 508.912 141.5Z" fill="#FADF8F"/>
<path d="M552.831 507.242C546.161 506.63 543.027 497.935 542.093 491.006C540.776 482.371 538.973 473.82 536.691 465.396C533.356 452.829 525.719 451.81 513.847 451.606C512.625 451.696 511.41 451.358 510.403 450.647C509.396 449.937 508.658 448.897 508.311 447.7C502.142 431.091 505.143 420.528 496.639 421.886C492.538 421.037 489.47 423.822 486.835 426.2C484.968 427.932 487.135 431.057 487.369 433.57C488.805 443.098 491.036 452.484 494.038 461.626C494.861 463.899 496.239 465.922 498.042 467.502C499.845 469.083 502.013 470.17 504.343 470.661C515.214 473.072 517.682 465.498 524.018 489.444C527.353 502.011 532.555 513.424 543.694 520.726C560.901 532.037 558.5 547.389 564.069 562.164C565.637 566.274 567.404 567.497 570.739 566.376C576.811 564.192 582.294 560.586 586.746 555.847C587.678 555.02 588.29 553.882 588.473 552.638C588.657 551.393 588.399 550.122 587.747 549.053C572.506 520.624 567.538 508.6 552.831 507.242Z" fill="#FADF8F"/>
<path d="M233.556 584.683C234.816 576.049 235.629 567.353 235.99 558.632C236.857 539.203 223.785 531.799 212.18 541.921C205.51 547.695 204.043 555.745 203.476 564.066C203.476 566.308 203.042 567.055 200.975 565.493C199.458 564.37 197.865 563.36 196.206 562.47C190.87 559.379 185.535 556.526 179.098 557.137C177.316 557.104 175.58 557.713 174.195 558.857C172.81 560 171.866 561.604 171.528 563.387C171.038 566.555 171.3 569.796 172.292 572.839C173.284 575.882 174.978 578.639 177.231 580.879C186.869 592.224 208.878 593.379 227.753 598.677C233.989 600.341 232.089 595.722 233.556 584.683Z" fill="#FADF8F"/>
<path d="M80.0543 465.022C79.4874 464.683 78.7537 464.615 78.2535 464.173C77.8786 463.842 77.4357 463.6 76.9572 463.465C76.4787 463.33 75.9767 463.305 75.4877 463.393C74.9988 463.481 74.5353 463.679 74.1311 463.973C73.7268 464.266 73.3921 464.648 73.1512 465.09C66.2815 474.329 60.579 484.111 62.113 496.271C62.6586 499.057 62.2179 501.95 60.8688 504.437C59.5197 506.924 57.3495 508.844 54.743 509.857L53.876 510.332C26.7639 527.315 35.6012 552.518 34.7008 564.202C34.7008 566.138 35.4678 567.055 37.2353 566.647C40.5701 565.9 43.9049 565.017 47.2397 564.066C53.9093 562.096 36.5683 535.365 61.1125 520.93C65.1099 518.525 68.9426 515.847 72.5843 512.914C76.7195 509.517 80.121 502.045 77.6532 496.373C76.015 493.08 75.5352 489.314 76.2938 485.704C77.0524 482.094 79.0036 478.858 81.8217 476.537C87.3909 470.83 87.0907 468.996 80.0543 465.022Z" fill="#FADF8F"/>
<path d="M481.899 107.195C484.334 108.214 484.167 105.734 495.572 88.5818C502.042 78.8676 510.545 79.8187 517.382 77.6449C524.218 75.4711 528.954 72.3802 529.921 64.9078C530.384 62.1424 530.695 59.3529 530.854 56.5522C530.507 52.2544 531.652 47.9689 534.09 44.4431C536.528 40.9173 540.104 38.3751 544.194 37.2598C546.395 36.4446 548.195 35.3238 548.029 32.7424C546.773 28.543 544.367 24.7959 541.092 21.9413C536.99 18.0692 534.123 18.5448 529.687 22.8923C520.978 31.5598 515.879 43.309 515.448 55.7031C515.547 57.2707 515.189 58.8333 514.417 60.1935C513.646 61.5537 512.496 62.6505 511.112 63.3454C506.977 65.4852 502.809 67.4892 498.64 69.595C494.905 71.3699 491.65 74.0449 489.157 77.3885C486.664 80.7322 485.009 84.644 484.334 88.7856C483.4 93.6087 482.333 98.4318 481.332 103.255C481.032 104.715 480.132 106.482 481.899 107.195Z" fill="#FADF8F"/>
<path d="M346.139 557.986C346.139 550.548 352.809 537.777 354.51 527.417C354.958 525.216 354.716 522.927 353.818 520.873C352.921 518.82 351.413 517.105 349.507 515.971C345.706 513.933 343.105 514.714 339.036 518.824C335.537 522.577 333.215 527.307 332.366 532.41C331.766 535.433 330.832 534.652 329.265 533.497C325.93 531.017 322.595 528.606 319.261 526.126C315.658 523.463 311.215 522.253 306.788 522.73C306.15 522.68 305.508 522.775 304.91 523.008C304.312 523.241 303.772 523.606 303.328 524.077C302.885 524.548 302.55 525.113 302.347 525.732C302.143 526.35 302.077 527.007 302.153 527.655C302.288 531.379 303.443 534.991 305.488 538.082C310.957 547.491 319.561 553.74 328.365 560.092C334.034 563.794 346.339 564.032 346.139 557.986Z" fill="#FADF8F"/>
<path d="M387.357 535.841C379.12 528.539 371.684 539.238 377.586 550.548C382.474 560.155 389.428 568.514 397.929 575.003C400.83 577.143 401.564 576.974 403.398 573.713C412.535 557.885 418.204 549.495 420.072 539.747C422.74 526.161 412.335 522.391 404.698 532.513C401.129 536.885 398.413 541.911 396.695 547.322C394.007 543.156 390.875 539.306 387.357 535.841Z" fill="#FADF8F"/>
<path d="M245.328 513.763C253.106 518.546 261.988 521.147 271.072 521.303H276.041C277.042 521.303 277.709 520.997 277.809 519.775C279.043 508.872 286.446 497.154 282.978 486.726C282.709 485.506 282.078 484.398 281.172 483.554C280.265 482.71 279.126 482.169 277.909 482.005C276.559 481.858 275.198 482.133 274.006 482.795C272.814 483.456 271.849 484.472 271.239 485.707C268.951 489.601 267.794 494.077 267.904 498.614C268.271 506.155 262.068 496.542 249.83 497.527C247.724 497.546 245.681 498.257 244.004 499.555C242.328 500.852 241.108 502.667 240.525 504.728C240.264 506.56 240.59 508.429 241.455 510.057C242.32 511.685 243.679 512.985 245.328 513.763Z" fill="#FADF8F"/>
<path d="M387.124 585.669C379.054 576.328 381.088 565.697 369.083 557.613C368.082 556.79 366.849 556.316 365.564 556.261C364.279 556.206 363.011 556.573 361.946 557.307C359.645 559.006 360.012 561.553 360.546 564.1C361.708 568.483 363.64 572.614 366.248 576.294C359.754 575.469 353.172 576.829 347.507 580.166C342.071 583.733 344.839 589.846 351.508 591.545C362.113 594.228 373.051 590.526 388.992 592.903C394.261 593.718 390.526 589.744 387.124 585.669Z" fill="#FADF8F"/>
<path d="M219.616 255.693C217.582 254.912 216.015 256.134 214.614 257.493C208.002 263.898 203.822 272.474 202.809 281.71C202.509 285.854 202.809 286.194 206.844 285.888C212.013 285.515 217.149 285.039 222.284 284.428C227.098 284.161 231.833 283.07 236.29 281.201C241.393 278.688 242.16 274.408 237.858 270.638C236.329 269.422 234.576 268.531 232.703 268.018C230.83 267.505 228.874 267.379 226.953 267.649C225.019 267.649 222.351 268.736 221.317 267.649C220.283 266.562 221.884 264.014 221.951 262.044C222.017 260.074 221.684 256.508 219.616 255.693Z" fill="#FADF8F"/>
<path d="M345.472 143.775C345.472 136.982 342.938 134.808 336.235 134.333C325.697 133.619 319.127 139.597 313.725 147.613C313.319 148.094 313.041 148.673 312.918 149.294C312.795 149.915 312.83 150.558 313.021 151.162C313.212 151.765 313.552 152.308 314.008 152.74C314.464 153.171 315.021 153.476 315.626 153.625C317.577 154.415 319.667 154.79 321.766 154.726C323.866 154.661 325.93 154.16 327.831 153.252C332.066 151.519 332.1 151.519 332.9 156.173C333.417 159.167 334.349 162.072 335.668 164.8C337.836 169.283 340.837 169.385 343.338 165.072C348.174 156.716 345.506 146.187 345.472 143.775Z" fill="#FADF8F"/>
<path d="M288.347 575.41C288.814 576.769 289.381 577.923 290.948 578.059C292.515 578.195 292.949 576.938 293.482 575.818C301.686 559.378 304.987 557.442 306.555 552.042C307.032 550.919 307.178 549.68 306.977 548.474C306.776 547.268 306.235 546.147 305.421 545.249C301.853 541.852 298.084 548.645 297.684 543.754C297.084 536.961 292.849 536.18 290.248 539.338C284.412 546.335 285.545 567.326 288.347 575.41Z" fill="#FADF8F"/>
<path d="M320.561 435.234L325.263 428.441C326.67 431.676 328.82 434.519 331.533 436.729C334.3 438.902 336.835 437.917 337.869 434.521C338.294 433.172 338.347 431.731 338.024 430.354C337.7 428.976 337.012 427.716 336.035 426.709C333.021 423.246 329.669 420.105 326.03 417.334C325.311 416.637 324.356 416.247 323.362 416.247C322.369 416.247 321.414 416.637 320.694 417.334C315.592 421.478 315.292 427.252 314.958 433.094C314.958 434.487 315.125 435.914 316.726 436.321C317.395 436.584 318.129 436.62 318.82 436.424C319.511 436.229 320.121 435.811 320.561 435.234Z" fill="#FADF8F"/>
<path d="M151.653 367.982C149.489 362.887 145.877 358.569 141.281 355.585C136.946 352.833 132.611 352.596 130.343 355.585C129.039 357.241 128.073 359.145 127.5 361.186C126.927 363.228 126.76 365.365 127.008 367.472C127.942 373.484 136.346 379.904 142.315 379.904C143.786 380.014 145.261 379.757 146.613 379.156C147.964 378.554 149.152 377.626 150.071 376.451C150.991 375.277 151.616 373.892 151.891 372.416C152.167 370.94 152.085 369.418 151.653 367.982ZM136.246 375.319C132.678 373.111 129.143 370.767 129.209 364.721C132.144 372.975 138.714 374.401 145.05 376.032C142.349 377.866 140.148 377.798 136.246 375.319ZM144.883 373.145C137.88 372.194 132.544 369.273 131.377 362.14C130.81 358.743 132.378 356.603 135.779 356.943C140.314 357.351 148.685 364.959 149.552 369.442C149.919 371.582 147.884 373.213 144.783 373.145H144.883Z" fill="#FADF8F"/>
<path d="M115.337 60.9346C119.272 72.0753 123.707 83.0123 128.676 93.7794C135.397 106.813 143.207 119.234 152.02 130.904C153.42 132.772 154.721 134.708 156.188 136.542C156.65 137.111 156.951 137.798 157.057 138.529C157.162 139.259 157.07 140.005 156.789 140.686C154.144 149.255 150.797 157.584 146.784 165.583C146.784 165.888 146.417 166.16 146.284 166.466C145.639 167.39 144.889 168.234 144.05 168.979C144.45 170.779 145.95 172.104 148.885 173.734C150.155 174.421 151.198 175.472 151.886 176.757C160.488 183.482 167.147 192.448 171.162 202.707L173.363 201.96C176.472 200.796 179.674 199.91 182.933 199.31C178.932 194.725 175.897 189.902 171.895 185.724C171.128 184.943 169.394 184.06 170.595 182.803C171.795 181.546 173.029 182.803 173.929 183.856C178.128 187.712 181.816 192.108 184.901 196.933C186.302 199.073 186.869 198.665 192.138 198.665C197.812 198.592 203.439 197.606 208.812 195.744C210.016 195.347 211.09 194.618 211.913 193.638C211.413 186.845 213.947 184.162 210.179 184.4C206.743 184.804 203.377 185.684 200.174 187.015C193.972 189.121 194.272 187.864 190.804 179.95C188.464 175.825 186.574 171.451 185.168 166.907C184.793 166.637 184.496 166.27 184.308 165.843C184.12 165.416 184.048 164.946 184.099 164.481C184.15 164.016 184.322 163.574 184.598 163.2C184.874 162.826 185.244 162.535 185.668 162.356L186.068 162.118C187.502 160.692 188.269 160.827 203.643 150.943C205.143 149.992 206.01 150.23 206.11 151.962L206.311 153.797C208.478 153.151 208.678 155.223 208.678 156.853C208.678 163.069 209.078 169.217 209.278 175.433C209.269 175.952 209.348 176.469 209.512 176.961C210.465 177.169 211.456 177.11 212.38 176.791C214.059 176.415 215.612 175.596 216.882 174.415C218.152 173.235 219.095 171.735 219.616 170.066C219.302 169.482 219.077 168.852 218.949 168.198C217.972 160.022 218.55 151.73 220.65 143.777C221.084 142.044 221.25 139.905 219.316 138.954C217.288 137.934 215.318 136.8 213.414 135.557C211.213 135.251 209.012 135.014 206.744 134.81C201.088 133.805 195.634 131.854 190.604 129.036C188.569 128.119 187.802 125.911 186.902 123.975C181.965 112.412 178.264 100.341 175.864 87.9712C171.482 69.1118 169.377 49.7784 169.594 30.3996C169.533 24.3211 169.924 18.2466 170.761 12.228C170.795 11.7931 170.862 11.3616 170.961 10.9373C170.628 8.05019 169.594 7.26898 166.893 7.26898C156.848 6.96352 146.861 8.91402 137.639 12.982C128.418 17.05 120.189 23.1357 113.536 30.8071C106.233 39.0608 111.668 50.4392 115.337 60.9346Z" fill="#F4B77D"/>
<path d="M158.989 200.533C159.528 201.077 160.108 201.577 160.724 202.028C162.043 202.372 163.397 202.566 164.759 202.605H167.56C165.129 196.667 161.571 191.276 157.089 186.743C157.089 189.902 157.856 192.959 158.156 196.016C158.222 197.554 158.503 199.075 158.989 200.533Z" fill="#F4B77D"/>
<path d="M463.992 553.809C461.15 553.006 458.179 552.788 455.253 553.167C452.327 553.546 449.505 554.515 446.951 556.017C448.118 552.416 448.852 549.733 449.885 547.152C451.02 543.887 451.441 540.41 451.119 536.962C451.223 536.124 451.092 535.273 450.741 534.507C450.391 533.741 449.835 533.092 449.138 532.634C448.441 532.176 447.631 531.928 446.801 531.919C445.972 531.909 445.157 532.139 444.45 532.58C442.384 533.391 440.493 534.602 438.88 536.147C430.893 543.983 424.7 553.516 420.739 564.067C417.421 571.506 416.164 579.728 417.104 587.842C417.838 592.734 419.238 593.685 423.774 591.715C440.448 584.514 455.755 587.978 468.594 578.706C471.005 577.08 472.85 574.721 473.868 571.964C474.886 569.208 475.024 566.194 474.263 563.353C473.602 560.941 472.289 558.767 470.472 557.08C468.656 555.392 466.41 554.258 463.992 553.809Z" fill="#F4B77D"/>
<path d="M380.221 508.466L379.454 507.888C380.468 502.851 380.871 497.707 380.654 492.57C380.421 489.954 380.121 487.135 376.986 486.048C375.85 485.752 374.649 485.84 373.566 486.299C372.483 486.759 371.577 487.565 370.983 488.596C358.611 503.133 357.644 515.768 356.944 535.129C356.905 537.944 357.595 540.721 358.945 543.178C359.098 543.708 359.375 544.192 359.753 544.588C360.131 544.984 360.598 545.28 361.114 545.451C361.63 545.622 362.179 545.662 362.713 545.568C363.247 545.473 363.751 545.248 364.18 544.911C367.587 543.443 370.562 541.103 372.818 538.118C374.936 535.205 378.057 533.215 381.555 532.547C392.726 530.034 398.662 521.508 403.498 512.168C404.391 510.444 404.724 508.476 404.448 506.547C404.172 504.618 403.302 502.828 401.964 501.435C400.683 500.122 399.05 499.225 397.27 498.857C395.489 498.488 393.642 498.664 391.959 499.363C387.125 500.911 382.973 504.131 380.221 508.466Z" fill="#F4B77D"/>
<path d="M243.194 86.8506C244.894 92.8286 247.329 93.6437 252.298 90.2472C253.965 89.1263 255.632 87.8356 257.166 86.8506C259.968 85.0505 260.501 85.2882 261.402 88.5489C264.303 102.135 263.536 116.027 268.572 128.458C269.038 129.681 269.739 130.632 271.273 130.395C272.807 130.157 272.974 129.24 273.207 128.051C274.022 123.752 274.458 119.387 274.508 115.008C274.741 108.758 276.575 80.0915 277.042 70.3094C277.042 67.1506 275.375 65.5542 272.34 65.4523C269.305 65.3504 266.304 65.1806 263.436 65.0107C261.502 64.807 260.901 63.9918 261.102 62.2595C261.435 58.3195 261.769 54.4474 262.202 50.5074C262.636 46.5674 260.368 44.3597 257.333 45.956C251.313 49.199 245.712 53.1923 240.659 57.844C240.165 58.241 239.784 58.7651 239.556 59.3622C239.327 59.9593 239.259 60.6078 239.359 61.2406C240.184 69.8413 241.464 78.3904 243.194 86.8506Z" fill="#F4B77D"/>
<path d="M203.776 493.622C200.041 501.57 202.409 512.235 204.243 520.965C204.61 522.697 204.776 523.58 202.509 523.002C201.213 522.734 199.896 522.586 198.574 522.561C192.633 522.666 186.756 523.815 181.199 525.957C179.891 526.337 178.784 527.23 178.121 528.44C177.459 529.649 177.294 531.078 177.664 532.411C177.961 534.42 178.696 536.335 179.816 538.016C180.936 539.698 182.411 541.102 184.134 542.125C189.569 545.203 195.777 546.573 201.975 546.065C204.843 545.895 207.744 545.59 208.878 542.023C209.178 541.072 210.246 540.325 211.113 539.612C214.602 536.45 219.082 534.656 223.752 534.551C225.986 534.551 227.987 533.871 226.786 530.611C225.586 527.35 225.919 513.628 220.784 498.343C217.682 489.105 207.978 484.723 203.776 493.622Z" fill="#F4B77D"/>
<path d="M312.724 554.116C312.534 554.233 312.355 554.37 312.191 554.523C298.852 564.136 293.549 578.299 290.581 593.652C289.981 596.743 291.715 598.781 294.216 598.373C301.952 597.415 309.601 595.837 317.093 593.652C325.397 590.833 335.301 587.674 334.234 578.911C333.834 575.514 331.399 574.223 328.798 573.137C325.514 571.775 321.957 571.239 318.427 571.574L317.96 571.778C318.064 571.647 318.143 571.497 318.194 571.336C319.561 567.057 323.529 559.211 321.528 554.795L318.194 552.01C316.326 551.704 314.459 553.199 312.724 554.116Z" fill="#F4B77D"/>
<path d="M423.04 337.006C424.574 339.792 427.409 339.486 430.143 338.874C437.38 337.176 443.783 333.134 451.052 331.436C455.654 330.349 459.956 328.039 464.892 328.481C466.459 328.651 469.661 326.273 465.492 325.084C464.965 324.937 464.469 324.696 464.025 324.371C439.514 305.452 437.346 303.279 432.378 301.886C426.642 300.256 421.706 301.886 419.872 306.437C418.038 310.989 420.139 314.521 425.441 317.918C428.176 319.65 431.31 320.567 434.445 322.333C428.909 326.171 419.705 330.961 423.04 337.006Z" fill="#F4B77D"/>
<path d="M326.33 266.461C321.278 266.039 316.194 266.616 311.357 268.159C310.037 268.334 308.816 268.966 307.899 269.95C306.982 270.933 306.425 272.208 306.321 273.56C306.088 276.956 308.289 278.383 310.723 279.572C314.122 280.983 317.811 281.519 321.462 281.134C327.84 281.083 334.193 280.308 340.403 278.824C341.504 278.62 343.738 278.247 342.638 276.515C341.486 274.223 341.122 271.604 341.604 269.076C341.878 263.117 340.865 257.169 338.636 251.652C337.669 249.478 336.402 247.168 333.634 247.474C330.866 247.78 329.799 249.954 329.032 252.263C327.927 256.042 327.835 260.052 328.765 263.879C329.198 265.985 329.032 266.868 326.33 266.461Z" fill="#F4B77D"/>
<path d="M357.711 402.696C359.845 403.137 360.846 401.405 361.613 399.741C363.057 396.679 364.175 393.467 364.948 390.163C367.771 392.725 371.404 394.171 375.185 394.238C378.087 394.069 380.488 393.457 381.588 390.502C382.112 389.24 382.189 387.832 381.805 386.518C381.422 385.205 380.603 384.068 379.487 383.301C374.249 379.129 368.185 376.163 361.713 374.606C361.063 374.475 360.393 374.484 359.747 374.633C359.101 374.782 358.492 375.067 357.961 375.471C357.43 375.874 356.988 376.386 356.663 376.975C356.339 377.563 356.139 378.214 356.077 378.886C354.585 385.234 353.923 391.755 354.109 398.28C354.133 399.322 354.501 400.325 355.155 401.127C355.809 401.929 356.71 402.482 357.711 402.696Z" fill="#F4B77D"/>
<path d="M263.602 585.431C260.976 585.475 258.386 586.058 255.985 587.143C253.585 588.228 251.423 589.795 249.629 591.748C248.992 592.371 248.541 593.166 248.329 594.039C248.117 594.913 248.153 595.83 248.432 596.684C248.712 597.537 249.223 598.293 249.907 598.862C250.592 599.431 251.42 599.791 252.297 599.9C257.701 600.95 263.244 601.019 268.671 600.104C272.387 599.94 276.07 599.324 279.643 598.27C281.344 597.692 282.978 596.979 282.978 594.873C283.116 593.852 282.906 592.813 282.385 591.93C281.863 591.046 281.06 590.371 280.11 590.016C274.885 587.593 269.311 586.045 263.602 585.431Z" fill="#F4B77D"/>
<path d="M66.9818 244.111C75.3856 240.511 82.5221 227.74 80.3211 218.841C79.1539 213.95 75.2188 209.636 69.2829 212.863C65.2883 214.743 61.9443 217.808 59.6891 221.656C57.4338 225.505 56.3724 229.958 56.6439 234.431V237.386C56.6674 238.622 56.9901 239.833 57.5835 240.911C58.1769 241.989 59.0226 242.902 60.0454 243.567C61.0682 244.233 62.2365 244.63 63.4466 244.725C64.6567 244.82 65.8711 244.609 66.9818 244.111ZM69.5497 238.235C72.8743 232.918 75.3716 227.109 76.9529 221.015C78.8871 225.26 74.7853 234.839 69.5497 238.235ZM59.9787 234.227C59.9787 225.022 63.8805 218.977 71.1504 216.327C73.2179 215.58 74.4852 215.716 73.7849 218.399C72.5463 224.775 69.9635 230.801 66.2148 236.061C60.0788 243.092 60.1121 234.567 59.9787 234.193V234.227Z" fill="#F4B77D"/>
<path d="M78.954 184.672C81.1883 185.045 83.3559 184.943 84.9233 185.113C87.998 185.344 91.0894 185.104 94.094 184.4C96.0308 183.89 97.7859 182.831 99.1554 181.346C100.525 179.861 101.453 178.011 101.831 176.01C101.853 173.792 101.232 171.616 100.045 169.755C98.8591 167.894 97.1601 166.431 95.1612 165.549C91.1998 164.202 86.9449 164.025 82.889 165.039C79.1332 165.264 75.4901 166.43 72.2843 168.436C71.342 169.039 70.6056 169.924 70.1758 170.97C69.7461 172.016 69.6439 173.171 69.8833 174.278C71.0171 179.543 73.0847 183.687 78.954 184.672ZM75.6192 179.203C82.8076 180.535 90.2158 179.867 97.062 177.267C94.4609 182.939 81.6218 183.89 75.7525 179.203H75.6192ZM76.2194 170.542C80.1212 169.402 84.1175 168.629 88.1581 168.232C90.1706 168.214 92.1662 168.607 94.0273 169.387C95.2612 169.897 96.9953 170.27 97.0287 172.104C97.062 173.938 95.628 175.093 94.094 175.807C90.9174 177.099 87.5072 177.69 84.0896 177.539C81.4326 177.378 78.7971 176.958 76.2194 176.282C74.8521 175.976 73.2514 175.569 73.1847 173.701C73.118 171.833 74.8855 170.983 76.2194 170.542Z" fill="#F4B77D"/>
<path d="M534.556 226.755C531.066 228.701 528.053 231.426 525.743 234.726C523.433 238.025 521.885 241.815 521.217 245.81C519.416 253.86 526.386 260.075 533.989 255.592C537.675 253.689 540.761 250.769 542.895 247.166C545.03 243.562 546.127 239.421 546.061 235.213V232.835C545.91 231.542 545.451 230.307 544.724 229.237C543.996 228.166 543.023 227.293 541.889 226.694C540.754 226.094 539.493 225.786 538.215 225.797C536.937 225.808 535.681 226.137 534.556 226.755ZM524.152 246.863C525.27 240.122 528.842 234.058 534.156 229.88C535.39 228.861 537.124 227.536 538.658 228.725C539.345 229.379 539.839 230.215 540.087 231.138C540.334 232.062 540.324 233.038 540.059 233.956C539.555 237.046 538.552 240.03 537.091 242.787C535.626 246.579 532.851 249.696 529.287 251.55C525.619 253.011 524.152 252.026 524.152 246.863ZM534.556 251.822L535.623 250.259C539.467 245.323 542.036 239.484 543.093 233.277C543.518 236.576 543.085 239.93 541.839 243.005C540.592 246.081 538.576 248.769 535.99 250.803L534.556 251.822Z" fill="#F4B77D"/>
<path d="M239.625 556.459C241.159 556.459 241.493 555.508 241.693 554.354C243.027 546.507 250.43 542.466 252.831 533.974C253.094 533.351 253.167 532.663 253.043 531.997C252.918 531.331 252.6 530.718 252.131 530.238C251.589 529.754 250.915 529.452 250.198 529.373C249.482 529.294 248.76 529.442 248.129 529.796C246.457 530.607 244.969 531.764 243.76 533.193C242.993 531.019 242.427 528.913 240.092 528.981C237.758 529.049 237.191 531.155 236.457 532.887C235.882 534.577 235.523 536.335 235.39 538.118C234.756 543.756 237.458 548.817 237.991 554.252C237.958 555.338 238.091 556.324 239.625 556.459Z" fill="#F4B77D"/>
<path d="M620.361 420.8C591.702 410.999 565.923 394.017 545.394 371.414C544.17 370.14 543.467 368.441 543.427 366.659C542.626 352.365 542.793 338.031 543.927 323.76C542.86 315.473 541.393 315.914 532.589 298.286C532.196 297.048 531.373 295.998 530.273 295.335C529.174 294.671 527.874 294.441 526.619 294.686C525.9 294.787 525.171 294.787 524.452 294.686C521.55 298.456 520.717 297.811 515.681 293.531C515.051 293.074 514.469 292.55 513.947 291.969C512.008 289.342 509.2 287.52 506.044 286.84C505.075 287.397 504.159 288.045 503.309 288.776C500.808 290.882 499.974 288.776 498.34 287.859L497.173 288.334C495.105 289.285 494.505 290.814 495.972 292.58C499.318 296.637 502.869 300.515 506.61 304.196C507.377 304.944 508.611 305.793 507.611 306.948C506.61 308.102 505.577 306.947 504.776 306.268C497.806 301.071 493.004 293.837 487.635 287.112C481.699 279.673 481.466 281.983 477.331 284.734C474.043 287.833 470.365 290.471 466.393 292.58C465.259 293.497 464.125 294.482 463.058 295.501C455.321 302.77 456.922 302.022 460.29 312.484C460.757 313.91 461.59 314.148 462.791 313.299C466.693 310.582 471.228 308.748 474.296 304.876C475.897 302.872 476.964 302.94 477.964 304.4C481.466 303.279 485.201 312.891 493.104 326.783C494.205 328.719 494.872 331.063 497.673 331.674C499.307 332.014 498.007 333.475 496.973 335.071C496.774 336.302 496.189 337.434 495.305 338.298C488.136 345.974 486.835 350.186 485.001 349.472C484.395 350.431 483.956 351.488 483.7 352.597C481.98 350.432 480.729 347.92 480.032 345.227C478.343 340.956 476.1 336.935 473.362 333.271C471.414 332.57 469.301 332.501 467.312 333.072C465.324 333.644 463.558 334.829 462.257 336.464C461.888 336.758 461.58 337.125 461.352 337.543C461.124 337.96 460.981 338.421 460.931 338.896C460.881 339.371 460.926 339.852 461.062 340.309C461.198 340.767 461.423 341.191 461.724 341.558L463.091 343.223C469.998 351.377 475.429 360.715 479.132 370.803C481.087 372.786 483.51 374.225 486.168 374.981C490.379 374.717 494.605 375.014 498.74 375.864C503.294 376.535 507.722 377.898 511.879 379.906C515.183 380.487 518.531 380.772 521.884 380.755C522.799 380.659 523.721 380.861 524.518 381.33C525.314 381.8 525.945 382.514 526.319 383.37C535.29 399.164 538.525 407.554 555.199 431.126C570.851 449.941 588.412 467.018 607.589 482.074C608.982 483.149 610.453 484.114 611.991 484.961C618.534 481.228 623.602 475.298 626.33 468.182C629.885 456.477 632.123 444.398 633 432.179C632.2 423.891 631.266 425.895 620.361 420.8Z" fill="#FADF8F"/>
<path d="M167.193 319.753C167.942 319.774 168.681 319.58 169.327 319.194C169.974 318.808 170.5 318.245 170.848 317.569C171.195 316.893 171.35 316.131 171.293 315.37C171.236 314.61 170.971 313.88 170.528 313.265C170.294 312.79 169.994 312.348 169.727 311.907C160.223 308.51 155.288 307.559 149.218 304.74C148.284 304.298 147.017 303.891 147.317 302.362C147.618 300.834 148.485 300.936 149.518 300.698C153.603 300.014 157.723 299.572 161.857 299.373C167.026 298.932 172.195 298.762 177.331 297.981C177.951 297.762 178.493 297.361 178.891 296.83C179.288 296.298 179.523 295.659 179.565 294.992C179.565 292.173 177.531 291.188 175.063 289.897C173.729 289.897 172.429 289.897 171.128 290.101C163.525 290.746 155.888 290.44 148.351 291.799C147.517 291.799 146.717 291.799 146.384 290.95C146.207 290.593 146.157 290.185 146.242 289.795C146.328 289.405 146.542 289.057 146.851 288.81C147.625 288.175 148.45 287.607 149.318 287.112C168.794 275.258 159.99 281.44 175.997 269.552C177.231 268.634 178.198 267.514 177.731 265.883C177.477 265.13 176.986 264.483 176.336 264.041C175.685 263.599 174.91 263.387 174.129 263.438C171.232 263.273 168.334 263.736 165.626 264.796C155.888 269.891 148.685 275.258 136.146 280.319C135.362 280.624 134.498 280.638 133.705 280.358C132.912 280.079 132.241 279.523 131.81 278.79C130.877 277.466 132.044 276.311 132.944 275.394C136.071 271.867 139.401 268.532 142.915 265.408C144.236 263.69 145.461 261.899 146.584 260.041C147.517 258.479 148.918 256.645 147.351 254.81C145.783 252.976 143.249 254.029 140.681 255.15C132.011 263.098 123.173 270.774 114.269 278.485C112.835 279.741 113.236 280.59 113.802 281.881C115.719 286.848 115.719 292.369 113.802 297.335C113.636 297.811 113.802 298.592 112.969 298.524C112.804 298.516 112.642 298.473 112.493 298.4C112.344 298.327 112.212 298.223 112.103 298.097C111.994 297.97 111.911 297.822 111.859 297.662C111.808 297.502 111.788 297.333 111.802 297.166C111.635 290.372 112.535 284.496 108.133 279.843C106.566 278.145 106.999 276.447 107.466 274.477C108.867 268.601 110.801 262.894 112.235 256.95C112.15 256.543 111.98 256.16 111.737 255.825C111.494 255.491 111.184 255.213 110.827 255.01C110.47 254.808 110.075 254.685 109.668 254.651C109.261 254.616 108.852 254.671 108.467 254.81C104.765 255.626 100.93 256.441 100.163 261.4C99.7022 263.481 99.1232 265.534 98.429 267.548C95.4277 278.858 93.2934 290.44 88.4246 301.174C87.8021 302.963 87.0669 304.711 86.2236 306.404C85.8941 308.469 86.1366 310.586 86.9239 312.518C89.8585 320.534 89.2916 326.342 92.4263 334.698C92.8792 336.217 93.6365 337.624 94.6503 338.829C95.6641 340.035 96.9125 341.014 98.3165 341.703C99.7205 342.393 101.25 342.778 102.807 342.835C104.365 342.892 105.917 342.619 107.366 342.034C122.907 334.935 126.908 328.923 134.045 321.451C142.715 312.552 150.719 321.689 167.193 319.753Z" fill="#FADF8F"/>
<path d="M286.312 563.285C286.312 561.79 286.012 560.296 285.846 558.768C285.142 557.236 284.087 555.899 282.77 554.87C281.452 553.841 279.911 553.151 278.275 552.858C274.4 551.98 270.358 552.263 266.637 553.673C266.864 551.949 267.419 550.288 268.271 548.782C268.738 547.185 269.272 545.589 269.638 543.959C271.506 535.195 264.136 529.353 256.699 535.705C251.074 540.474 246.697 546.589 243.96 553.503C240.154 563.57 237.524 574.058 236.123 584.751C235.056 592.02 236.624 593.514 243.46 591.341C253.661 587.634 263.497 582.96 272.84 577.381C278.376 574.494 285.245 569.704 286.312 563.285Z" fill="#FADF8F"/>
<path d="M414.903 116.706C416.37 117.113 417.17 116.061 417.737 114.94C429.042 92.9299 465.459 81.3816 466.659 67.3878C466.804 66.563 466.772 65.716 466.563 64.9054C466.355 64.0948 465.976 63.3401 465.452 62.6937C464.929 62.0474 464.273 61.5248 463.531 61.1623C462.79 60.7999 461.979 60.6062 461.157 60.5947C458.837 60.528 456.524 60.8728 454.32 61.6137C449.471 63.2851 444.994 65.917 441.148 69.3578C439.414 67.8633 441.648 67.218 441.148 59.9154C441.145 59.1229 440.921 58.3477 440.501 57.6801C440.082 57.0126 439.485 56.4802 438.78 56.1452C438.041 55.8783 437.237 55.8597 436.487 56.092C435.737 56.3242 435.08 56.7952 434.612 57.4359C432.889 59.0255 431.356 60.8153 430.043 62.7685C414.303 87.971 415.103 105.667 413.969 114.396C413.836 115.347 413.836 116.4 414.903 116.706Z" fill="#FADF8F"/>
<path d="M418.638 523.987C427.809 527.825 424.04 534.176 422.606 540.969C422.44 541.751 422.24 542.838 423.307 543.313C424.374 543.789 425.341 541.853 429.109 538.252C433.511 534.074 437.646 529.353 444.65 530.61C445.147 530.657 445.648 530.572 446.103 530.363C446.559 530.155 446.954 529.831 447.251 529.421C451.524 525.154 455.124 520.238 457.922 514.85C459.356 511.827 460.49 508.057 457.922 505.272C455.354 502.486 451.686 502.656 448.084 503.777C444.073 505.439 440.499 508.033 437.646 511.351C438.416 506.868 438.685 502.31 438.447 497.765C438.554 496.568 438.29 495.367 437.692 494.331C437.094 493.295 436.191 492.477 435.112 491.991C434.136 491.62 433.074 491.544 432.057 491.773C431.039 492.002 430.108 492.526 429.376 493.282C426.547 495.32 424.256 498.039 422.706 501.196C420.018 506.855 417.788 512.728 416.037 518.756C415.721 519.254 415.54 519.828 415.509 520.42C415.479 521.012 415.602 521.602 415.865 522.131C416.128 522.66 416.522 523.11 417.009 523.435C417.495 523.761 418.057 523.951 418.638 523.987Z" fill="#FADF8F"/>
<path d="M122.006 410.236C114.238 414.815 107.572 421.105 102.497 428.645C99.5244 432.568 97.183 436.948 95.5609 441.62C95.1356 442.315 94.9714 443.144 95.0986 443.953C95.2259 444.762 95.6359 445.497 96.2533 446.022C96.8706 446.548 97.6536 446.828 98.4578 446.812C99.2621 446.795 100.034 446.484 100.63 445.934C104.58 443.137 108.315 440.037 111.801 436.661C115.436 433.264 115.503 432.993 114.236 438.122C111.868 447.462 109.434 456.905 112.368 464.275C112.789 465.754 113.663 467.056 114.864 467.991C116.064 468.927 117.527 469.445 119.038 469.472C122.373 469.472 123.473 466.483 124.307 463.732C126.166 456.337 127.283 448.769 127.642 441.145C128.542 431.6 127.909 421.75 132.577 412.851C135.445 407.587 125.708 408.062 122.006 410.236Z" fill="#FADF8F"/>
<path d="M176.63 431.839C177.718 432.467 178.94 432.814 180.19 432.849C181.439 432.884 182.678 432.605 183.798 432.039C184.917 431.472 185.883 430.634 186.61 429.598C187.337 428.562 187.804 427.361 187.969 426.099C187.938 421.37 188.43 416.653 189.436 412.037C193.304 397.534 198.907 384.151 212.38 375.931C213.259 375.535 213.968 374.829 214.379 373.944C214.789 373.058 214.872 372.052 214.614 371.108C214.355 369.901 213.734 368.806 212.838 367.972C211.943 367.139 210.815 366.609 209.612 366.455C206.791 365.848 203.869 365.945 201.093 366.738C198.317 367.53 195.771 368.995 193.671 371.006C188.989 376.114 185.229 382.024 182.566 388.465C173.862 406.874 173.629 422.668 174.229 425.181C174.83 427.695 174.396 430.14 176.63 431.839Z" fill="#FADF8F"/>
<path d="M216.282 186.404C217.649 192.178 219.15 197.918 220.884 203.59C221.893 206.68 223.176 209.67 224.719 212.523C225.089 213.384 225.676 214.129 226.42 214.685C227.165 215.24 228.04 215.585 228.957 215.685C229.874 215.785 230.801 215.636 231.644 215.254C232.487 214.872 233.215 214.269 233.756 213.508C234.993 212.29 235.883 210.752 236.329 209.059C236.775 207.366 236.762 205.582 236.29 203.896L234.056 196.05C237.277 197.663 240.623 199.004 244.061 200.058C248.763 201.077 251.931 199.752 253.365 195.982C253.823 195.037 254.083 194.006 254.128 192.953C254.172 191.9 254.001 190.85 253.624 189.868C253.248 188.887 252.674 187.996 251.94 187.253C251.207 186.511 250.329 185.932 249.363 185.554C246.904 184.288 244.35 183.22 241.726 182.362C235.531 179.945 228.91 178.869 222.284 179.203C217.415 179.644 215.214 182.226 216.282 186.404Z" fill="#FADF8F"/>
<path d="M314.025 504.762C315.887 512.561 320.068 519.584 325.997 524.87C329.599 528.267 330.232 528.267 332.333 523.715C337.802 511.929 343.838 506.427 345.672 498.683C346.124 497.34 346.181 495.893 345.837 494.517C345.494 493.142 344.764 491.898 343.738 490.938C342.665 490.035 341.348 489.484 339.961 489.357C338.575 489.229 337.183 489.532 335.968 490.225C332.511 491.881 329.552 494.45 327.398 497.664C325.33 493.995 323.796 490.123 319.327 490.871C318.119 491.063 316.991 491.603 316.075 492.428C315.159 493.252 314.494 494.327 314.158 495.524C313.205 498.52 313.158 501.739 314.025 504.762Z" fill="#FADF8F"/>
<path d="M277.542 376.304C280.221 379.69 283.639 382.393 287.523 384.197C291.408 386.001 295.652 386.857 299.919 386.698C302.053 386.698 303.253 386.019 303.02 383.539C302.72 377.663 303.32 364.858 302.486 357.555C302.451 356.446 302.065 355.377 301.386 354.508C300.708 353.639 299.772 353.017 298.718 352.732C297.774 352.4 296.752 352.372 295.792 352.652C294.831 352.931 293.979 353.505 293.349 354.295C291.074 356.649 289.804 359.823 289.814 363.126C289.814 363.941 290.314 365.164 289.147 365.469C287.98 365.775 286.479 364.043 281.477 360.442C279.706 359.076 277.562 358.304 275.341 358.235C271.639 358.235 270.105 360.103 270.706 363.805C271.763 368.552 274.136 372.89 277.542 376.304Z" fill="#FADF8F"/>
<path d="M400.763 241.632C395.227 240.137 393.126 247.304 390.926 252.501C389.894 249.48 388.599 246.558 387.057 243.772C385.757 241.87 384.456 239.764 381.855 240.613C379.254 241.462 378.753 243.806 378.52 246.319C378.187 255.66 380.488 269.042 385.19 276.175C386.757 278.722 389.958 279.571 390.892 277.432C392.926 273.118 396.561 270.027 398.962 266.019C402.297 260.72 405.332 255.456 405.299 249.036C405.232 244.757 403.865 242.549 400.763 241.632Z" fill="#FADF8F"/>
<path d="M395.961 601.09C398.378 599.99 400.547 598.394 402.331 596.402C403.565 600.037 405.666 604.181 409.334 603.196C411.868 602.584 413.336 599.799 413.302 595.485C412.768 590.807 412.534 586.099 412.602 581.39C412.835 579.08 411.235 578.74 409.267 579.046C398.396 580.744 393.493 590.255 391.626 597.353C391.431 597.953 391.42 598.598 391.592 599.205C391.765 599.811 392.114 600.35 392.593 600.75C393.049 601.159 393.619 601.411 394.223 601.472C394.828 601.533 395.435 601.399 395.961 601.09Z" fill="#FADF8F"/>
<path d="M337.335 584.276C336.263 584.335 335.252 584.799 334.499 585.578C333.746 586.358 333.307 587.395 333.267 588.488C333.067 590.526 332.066 591.103 330.199 590.933C326.657 590.852 323.147 591.632 319.961 593.209C318.56 593.752 317.293 594.635 317.293 596.3C317.293 597.964 318.694 598.677 320.094 599.187C323.592 600.595 327.341 601.243 331.099 601.089C335.837 601.086 340.531 600.176 344.939 598.406C349.907 596.843 343.104 594.771 341.137 587.842C340.637 585.974 339.67 584.038 337.335 584.276Z" fill="#FADF8F"/>
<path d="M190.003 438.632C189.82 437.272 189.136 436.034 188.089 435.17C187.042 434.305 185.711 433.879 184.367 433.978C181.733 433.978 178.498 433.537 177.698 436.798C175.997 443.998 174.363 453.101 181.399 454.086C183.168 454.439 185.002 454.09 186.527 453.112C188.052 452.133 189.152 450.599 189.603 448.821C190.179 446.608 190.393 444.313 190.236 442.028C190.292 440.891 190.214 439.75 190.003 438.632Z" fill="#FADF8F"/>
<path d="M476.664 487.847C467.66 452.15 471.061 423.313 466.393 385.951C465.898 380.261 463.866 374.822 460.523 370.235C457.18 365.649 452.655 362.095 447.451 359.967C433.145 353.445 416.437 359.254 406.133 358.065C411.101 351.815 411.101 349.268 406.333 343.018C405.706 342.089 404.967 341.244 404.132 340.505C401.631 338.67 402.097 336.904 404.132 335.002C407.378 331.42 409.289 326.793 409.534 321.925C409.819 318.935 409.122 315.933 407.553 313.388C405.985 310.844 403.632 308.901 400.864 307.864C396.383 306.277 391.72 305.283 386.991 304.909C375.377 304.324 363.736 304.813 352.209 306.369C324.096 309.766 286.279 306.03 262.802 304.705C251.064 304.026 242.993 310.479 234.49 316.593C231.155 318.936 231.155 322.061 233.089 325.628C236.957 333.202 246.428 334.289 241.893 337.414C238.758 339.722 236.535 343.095 235.624 346.924C235.266 348.323 234.513 349.584 233.458 350.55C232.402 351.517 231.091 352.145 229.688 352.359C222.44 353.962 214.989 354.386 207.611 353.615C200.809 353.237 194.09 355.279 188.603 359.389C176.547 368.437 167.569 381.097 162.925 395.597C160.411 404.418 159.285 413.589 159.59 422.769C158.356 516.378 160.39 497.833 155.021 536.045C151.686 559.175 143.249 586.348 165.726 604.281C182.667 617.868 201.342 626.495 223.385 626.563C267.171 626.767 276.742 640.149 375.419 627.718C393.26 625.476 410.901 621.672 428.543 618.038C435.812 616.577 468.093 606.217 468.927 605.674C476.797 600.307 480.699 592.292 483.6 583.427C489.236 566.274 487.435 548.951 485.268 531.595C483.3 516.844 480.427 502.232 476.664 487.847ZM479.765 579.86C478.718 584.001 477.195 588.003 475.23 591.782C474.088 594.297 472.422 596.529 470.35 598.324C468.277 600.118 465.846 601.432 463.225 602.176C451.486 605.198 440.248 610.361 428.476 613.112C388.631 622.549 347.923 627.695 307.022 628.465C274.574 629.008 260.868 622.962 219.083 622.079C200.713 621.479 183.059 614.681 168.894 602.753C156.288 592.733 153.62 578.977 155.221 563.659C157.155 545.657 161.19 527.927 162.691 509.857C163.625 498.377 162.691 486.862 162.925 475.348C163.258 454.731 162.291 434.114 162.724 413.497C162.869 399.452 167.917 385.919 176.964 375.319C185.735 364.722 194.372 356.91 208.078 357.861C217.049 358.506 226.019 358.846 234.156 353.819C235.157 353.208 235.59 353.513 236.19 354.532C237.658 357.012 237.758 356.978 239.525 357.929C240.192 357.386 239.925 356.808 239.525 356.163C237.124 349.573 238.025 345.973 243.327 341.15C246.929 337.753 247.262 335.648 244.794 331.47C243.253 329.127 241.414 327.003 239.325 325.152C238.816 324.796 238.4 324.32 238.112 323.764C237.825 323.207 237.674 322.588 237.674 321.959C237.674 321.331 237.825 320.711 238.112 320.155C238.4 319.599 238.816 319.122 239.325 318.767C243.966 314.733 249.086 311.309 254.565 308.577C256.7 307.354 293.149 309.834 302.887 310.275C333.634 311.566 331.8 312.313 360.079 308.985C372.32 307.427 384.734 308.059 396.762 310.853C398.755 311.222 400.614 312.128 402.149 313.475C403.683 314.822 404.836 316.562 405.489 318.515C406.142 320.468 406.271 322.563 405.862 324.584C405.453 326.605 404.522 328.478 403.165 330.009C396.828 338.229 396.828 338.535 403.932 346.109C405.966 348.283 406.566 350.049 405.766 351.645C404.465 354.227 397.362 356.061 402.798 360.341C408.234 364.62 416.537 360.001 433.211 360.782C440.308 361.001 447.18 363.366 452.953 367.575C460.924 373.451 463.291 381.977 464.492 391.351C467.827 418.048 462.324 449.534 471.962 488.085C475.819 502.756 478.748 517.663 480.732 532.716C482.633 548.646 484.567 564.304 479.732 579.86H479.765Z" fill="#3C270B"/>
<path d="M399.696 207.666C400.063 208.482 403.431 216.362 403.565 216.633C403.705 217.129 403.953 217.585 404.292 217.968C404.631 218.351 405.051 218.65 405.52 218.843C405.989 219.036 406.495 219.118 407 219.082C407.505 219.047 407.995 218.895 408.433 218.637C417.329 215.32 426.035 211.499 434.512 207.191C434.65 208.52 434.293 209.853 433.511 210.927C419.172 239.628 406.499 243.568 415.337 248.867C422.806 253.554 424.307 255.422 428.676 250.973C434.745 244.791 447.818 228.521 451.586 223.8C455.354 236.979 452.886 240.104 452.62 252.841C452.62 258.683 453.487 259.634 459.056 260.958L463.058 262.011C469.727 263.506 469.027 261.332 471.528 248.833C473.362 239.56 475.196 232.495 475.697 230.831C476.43 228.284 477.231 228.351 479.298 230.05C484.235 233.868 488.052 238.989 490.336 244.859C491.07 246.523 491.87 247.916 494.038 247.236C497.082 246.248 500.249 245.711 503.442 245.64C508.311 245.64 505.643 239.968 503.242 235.145C501.208 231.035 499.307 226.823 497.273 222.713C496.6 221.574 496.269 220.259 496.322 218.931C496.376 217.603 496.811 216.32 497.573 215.241C500.036 210.606 502.262 205.844 504.243 200.975C508.344 191.669 503.942 190.242 508.645 187.729C544.24 168.474 576.832 143.944 605.354 114.94C608.581 111.866 611.476 108.451 613.991 104.751C615.759 101.999 616.993 98.7388 611.79 103.936C588.692 127.212 563.554 148.29 536.69 166.908C526.319 173.973 516.081 179.747 505.276 186.404C504.376 186.981 503.376 187.457 503.009 188.544C502.907 188.782 502.84 189.033 502.809 189.291C502.108 198.869 497.44 206.919 493.671 214.629C493.047 215.882 492.722 217.267 492.722 218.671C492.722 220.076 493.047 221.461 493.671 222.713C496.039 228.318 498.84 233.65 501.541 239.051C502.709 241.19 502.842 242.04 500.574 242.176C498.307 242.311 495.939 243.67 494.138 243.093C492.337 242.515 491.904 239.187 490.537 237.352C489.936 236.537 489.536 235.586 488.936 234.805C485.941 230.301 481.673 226.83 476.697 224.853C475.563 224.445 473.362 224.004 473.596 225.295C473.796 228.691 471.695 231.103 471.161 234.092C469.961 240.647 466.759 256.169 466.626 256.883C466.493 257.596 466.626 258.887 465.059 258.921C457.822 259.192 455.488 256.679 456.288 249.342V248.663C456.588 240.919 457.989 233.107 454.987 225.634C453.954 223.053 453.053 221.355 455.421 219.554C456.955 218.366 455.421 215.614 453.42 217.482C447.017 223.155 451.653 219.079 430.076 244.655C424.941 250.701 424.874 250.531 418.371 246.353C416.604 245.198 416.304 244.315 417.504 242.685C419.572 239.9 421.606 237.047 423.573 234.194C429.398 226.688 434.096 218.344 437.513 209.433C438.28 207.123 438.88 205.323 441.481 205.017C442.382 205.017 443.416 204.576 443.182 203.421C442.949 202.266 441.982 202.266 441.048 202.266C433.678 202.266 428.442 206.613 412.102 213.441C405.966 216.022 407.5 216.192 404.632 210.35C403.231 207.463 403.665 206.172 406.466 204.745C414.143 201.015 421.563 196.759 428.676 192.008C436.212 186.812 444.216 182.192 450.419 175.229C455.721 185.725 458.956 189.359 462.991 188.816C451.219 174.822 453.954 171.187 448.318 169.659C443.646 167.95 439.408 165.199 435.912 161.609C433.811 159.775 432.577 158.994 434.178 156.752C436.348 154.061 438.76 151.582 441.381 149.348C443.516 147.208 442.715 150.366 452.82 155.359C457.155 157.499 465.225 160.386 465.826 160.556C469.046 161.799 472.506 162.261 475.933 161.908C479.359 161.554 482.657 160.394 485.568 158.518C493.923 153.641 501.796 147.954 509.078 141.535C539.325 113.718 563.102 79.4803 574.44 54.8213C575.735 52.7894 576.482 50.4468 576.608 48.0281C576.608 47.4507 576.608 46.8393 575.841 46.7714C575.074 46.7035 574.874 47.1111 574.741 47.7225C573.855 50.7312 572.565 53.6003 570.906 56.2478C551.23 92.5231 517.182 135.49 481.466 156.718C479.781 157.768 477.905 158.459 475.95 158.751C473.996 159.043 472.004 158.929 470.094 158.416C460.851 155.732 452.026 151.729 443.883 146.528C443.049 146.019 442.248 144.762 440.981 145.849C437.398 148.306 434.185 151.28 431.444 154.68C430.743 155.835 430.276 157.228 428.109 156.922C426.908 156.922 426.808 158.077 427.242 158.926C427.729 159.799 428.361 160.581 429.109 161.235C434.827 166.331 441.131 170.699 447.884 174.244C440.061 180.327 431.936 185.995 423.54 191.227C416.437 195.778 408.767 199.311 401.397 203.353C399.863 204.27 398.662 205.357 399.696 207.666Z" fill="#3C270B"/>
<path d="M127.209 340.131C133.372 335.065 139.014 329.375 144.049 323.148C147.184 319.446 146.617 321.518 158.022 322.741C162.131 323.594 166.303 324.094 170.495 324.235C172.595 324.235 174.863 323.93 175.864 321.62C178.832 315.031 176.864 310.377 170.128 308.034C166.793 306.845 160.123 304.875 156.122 303.652C158.348 303.091 160.631 302.795 162.925 302.769C169.429 302.436 175.897 301.573 182.266 300.188C183.934 299.746 185.601 299.135 186.001 297.267C186.161 296.119 186.096 294.951 185.809 293.83C185.522 292.709 185.02 291.657 184.332 290.734C183.643 289.812 182.782 289.038 181.798 288.457C180.814 287.876 179.726 287.499 178.598 287.349H167.56C160.657 287.756 160.89 287.349 155.821 287.349C156.622 286.839 157.856 285.922 158.856 285.345C165.959 281.235 173.062 277.125 180.199 273.083C186.035 269.687 182.533 264.897 178.998 259.055C178.502 258.037 177.635 257.258 176.582 256.883C175.528 256.509 174.373 256.569 173.363 257.051C160.824 261.331 151.753 269.619 138.013 275.393C142.582 268.973 150.719 263.845 156.155 255.251C157.455 253.145 157.822 251.04 155.455 249.341C153.203 248.018 150.622 247.393 148.027 247.544C145.432 247.695 142.937 248.615 140.848 250.19C131.677 258.036 122.807 266.154 114.17 274.476C113.169 275.427 112.102 277.669 110.668 276.718C109.234 275.766 110.668 274.204 110.968 272.404C112.335 265.849 115.303 259.667 115.837 252.908C116.304 246.726 115.37 245.775 109.401 245.571C102.198 245.367 102.431 245.571 100.097 252.364C94.9684 266.875 90.8344 281.731 87.7245 296.825C86.6594 303.195 83.3223 308.941 78.3536 312.959C62.2798 325.628 46.0059 338.093 29.6987 350.321C21.6284 356.503 13.3581 362.277 3.02018 364.315C-1.08164 365.164 -0.648118 368.153 2.18647 367.711C12.3167 365.762 21.8418 361.371 29.9655 354.906C44.8054 344.139 59.2451 332.761 73.7516 321.45C79.0008 317.49 83.2712 312.338 86.2238 306.403C91.3594 295.704 89.5586 287.009 102.398 253.519C102.688 252.12 103.501 250.892 104.665 250.093C105.829 249.294 107.252 248.988 108.634 249.239C113.236 249.545 113.436 249.647 112.636 254.368C111.635 260.108 108.734 268.532 107.333 274.476C106.942 275.345 106.798 276.308 106.916 277.256C107.033 278.204 107.409 279.1 108 279.842C112.402 284.496 111.335 290.27 111.668 297.165C111.655 297.333 111.674 297.502 111.726 297.661C111.778 297.821 111.861 297.969 111.97 298.096C112.078 298.223 112.211 298.326 112.36 298.399C112.509 298.473 112.67 298.515 112.836 298.523C113.636 298.523 113.503 297.81 113.669 297.335C115.586 292.368 115.586 286.847 113.669 281.88C113.102 280.556 112.702 279.74 114.136 278.484C120.239 273.219 136.913 258.648 142.415 253.417C143.765 252.103 145.448 251.201 147.275 250.81C149.102 250.42 151 250.558 152.753 251.209C154.788 251.719 154.754 252.636 153.72 253.995C148.018 261.705 140.881 266.086 132.911 275.325C132.011 276.344 130.844 277.499 131.777 278.721C132.208 279.455 132.879 280.01 133.672 280.289C134.465 280.569 135.329 280.555 136.113 280.25C150.252 274.646 158.723 267.683 170.228 262.384C176.164 259.701 176.431 259.837 179.632 265.781C181.033 268.396 180.832 269.924 177.898 271.215C167.095 276.35 156.655 282.24 146.651 288.843C146.35 289.104 146.145 289.46 146.066 289.854C145.988 290.248 146.041 290.657 146.217 291.017C146.551 291.9 147.351 292.002 148.151 291.866C155.711 290.909 163.313 290.343 170.928 290.168C173.785 289.811 176.675 289.811 179.532 290.168C182.633 290.677 182.6 293.564 182.867 295.636C183.133 297.708 180.899 297.199 179.532 297.471C171.228 299.101 154.954 299.305 149.218 300.527C148.185 300.731 147.218 300.969 146.984 302.192C146.751 303.414 147.951 304.128 148.918 304.535C155.088 307.422 162.591 309.155 170.795 312.212C174.796 313.672 172.062 316.865 172.295 319.208C172.529 321.552 170.395 320.975 168.961 320.907C161.714 320.461 154.512 319.45 147.418 317.884C146.416 317.603 145.358 317.614 144.362 317.914C143.366 318.214 142.472 318.792 141.782 319.582C133.351 329.161 124.05 337.906 114.003 345.702C113.36 346.281 112.61 346.724 111.797 347.004C110.984 347.284 110.124 347.396 109.267 347.332C105.08 346.833 100.839 347.497 96.9932 349.256C93.1473 351.014 89.8407 353.8 87.4243 357.318C76.7196 371.244 65.5813 384.83 54.6765 398.586C48.0068 407.01 40.5368 414.72 35.0344 424.094C33.4003 426.845 32.6 429.359 35.5013 426.132C55.3434 405.006 72.9179 381.977 90.8925 359.22C92.721 356.689 95.0595 354.586 97.7512 353.052C100.443 351.517 103.426 350.586 106.499 350.321C114.97 349.676 121.106 344.92 127.209 340.131Z" fill="#3C270B"/>
<path d="M273.907 175.738C274.774 179.135 276.608 180.256 280.143 179.135C288.035 177.424 295.411 173.813 301.653 168.605C302.053 168.232 302.386 167.281 303.187 167.994C303.987 168.707 304.421 169.013 303.92 169.998C303.42 170.983 303.454 171.255 303.22 171.866C293.616 193.74 283.411 211.062 281.277 214.969C280.21 217.006 280.377 218.365 283.211 218.365C302.12 218.773 292.449 228.011 313.225 196.118C313.725 195.336 313.958 193.944 315.526 194.114C315.59 204.03 314.865 213.935 313.358 223.732C312.495 227.899 312.37 232.189 312.991 236.401C313.391 237.929 314.058 239.254 315.792 239.22C319.164 239.294 322.518 239.738 325.797 240.545C328.565 241.02 329.865 239.695 330.232 236.944C332.967 214.867 333.3 214.697 337.169 192.789C345.772 209.025 344.272 210.655 349.674 224.886C351.175 228.86 353.009 229.71 357.311 228.725C358.578 228.419 359.845 228.045 361.113 227.638C362.21 227.385 363.169 226.71 363.79 225.755C364.411 224.799 364.647 223.637 364.447 222.509C364.014 216.769 362.68 210.927 358.245 188C358.573 187.739 358.919 187.501 359.278 187.287C362.413 190.683 365.481 194.317 368.749 197.476C373.785 202.537 377.286 196.729 382.088 192.144C382.583 191.778 382.992 191.304 383.283 190.757C383.575 190.21 383.743 189.603 383.775 188.981C383.807 188.359 383.702 187.738 383.468 187.163C383.234 186.587 382.877 186.073 382.422 185.656C379.506 181.616 376.366 177.749 373.018 174.074C370.682 171.975 369.157 169.097 368.716 165.956C368.216 160.691 367.615 155.427 366.882 150.196C365.648 141.365 364.08 132.602 357.811 125.673C356.784 124.457 355.67 123.322 354.476 122.276C354.235 122.066 353.927 121.95 353.609 121.95C353.291 121.95 352.984 122.066 352.742 122.276C352.531 122.514 352.414 122.822 352.414 123.143C352.414 123.463 352.531 123.771 352.742 124.009L353.109 124.552C356.965 129.352 359.772 134.933 361.346 140.924C362.83 147.495 363.822 154.171 364.314 160.895C364.342 163.827 364.947 166.723 366.093 169.412C367.238 172.101 368.901 174.53 370.984 176.553C374.175 179.876 377.087 183.466 379.687 187.287C380.254 188 381.355 188.713 380.188 189.834C378.187 191.77 376.219 193.74 374.185 195.676C374.003 195.891 373.778 196.064 373.525 196.183C373.272 196.301 372.996 196.363 372.718 196.363C372.439 196.363 372.164 196.301 371.91 196.183C371.657 196.064 371.432 195.891 371.25 195.676C366.348 190.242 359.679 186.607 356.344 180.052C355.944 179.305 355.377 178.625 354.576 178.897C353.776 179.169 353.609 180.086 353.743 180.935C355.877 195.506 359.445 209.092 361.279 221.694C361.579 223.562 361.079 224.411 359.512 225.09C354.843 226.823 353.576 226.313 351.875 221.388C348.54 211.98 346.106 202.299 340.737 193.74C339.236 191.396 337.635 189.053 338.969 185.962C339.203 185.418 339.403 184.298 338.302 184.026C337.202 183.754 336.868 184.569 336.602 185.283C335.727 187.57 334.981 189.906 334.367 192.28C331.399 205.424 329.632 218.773 327.898 232.121C327.631 234.057 328.731 236.74 326.964 237.759C325.197 238.778 322.962 237.182 320.928 236.808C315.759 235.789 315.659 235.654 316.226 230.015C319.027 201.416 319.294 204.949 317.96 189.732C317.96 189.257 318.627 188.713 317.96 188.238C317.293 187.762 316.726 188.238 316.126 188.509C311.957 190.989 310.123 194.861 297.918 214.051C297.151 215.24 296.517 216.972 294.95 216.972C291.509 217.423 288.015 217.157 284.679 216.191C293.075 201.725 300.366 186.622 306.488 171.017C309.91 172.545 313.621 173.285 317.356 173.185C321.091 173.086 324.759 172.148 328.098 170.44C325.415 169.811 322.633 169.753 319.928 170.27C314.759 170.27 309.356 169.998 305.454 166.5C302.953 164.258 301.819 165.005 299.852 166.5C294.765 170.243 289.14 173.165 283.178 175.161C276.508 177.403 277.809 176.961 273.173 167.688C272.64 166.602 272.34 165.99 274.007 165.379C291.548 159.129 305.021 147.037 317.36 133.553C318.66 132.16 322.129 130.156 318.494 127.405C318.293 127.405 318.494 126.386 318.727 125.877C321.462 108.351 324.43 90.8922 326.931 73.366C330.33 49.553 337.209 26.3923 347.34 4.65356C349.741 -0.713008 348.107 -1.93577 345.039 3.63459C323.896 42.3554 322.195 83.4198 316.893 120.986C316.293 125.096 317.393 129.511 313.558 133.111C300.819 144.864 287.847 156.208 271.873 163.273C267.704 164.733 271.639 166.907 273.907 175.738Z" fill="#3C270B"/>
<path d="M145.817 128.152C147.83 131.252 150.305 134.014 153.154 136.338C154.788 137.527 154.854 138.546 153.954 140.448C149.819 149.381 145.85 158.415 141.882 167.416C138.547 174.651 144.05 173.224 151.586 180.663C153.787 182.905 153.32 181.444 154.054 187.15C154.588 190.955 155.154 194.793 155.488 198.597C155.921 203.556 157.089 205.39 162.158 205.39C167.226 205.39 171.528 207.564 175.797 204.099C176.366 203.739 177.028 203.561 177.698 203.59C183.373 202.846 189.084 202.415 194.805 202.299C200.708 202.741 206.877 201.959 212.98 201.993C214.347 201.993 215.481 201.586 215.381 199.955C215.539 194.898 215.058 189.841 213.947 184.909C212.513 180.629 209.078 180.935 204.843 182.361C198.974 184.331 197.473 186.471 196.373 183.958C194.149 178.21 191.367 172.703 188.069 167.518C187.069 166.024 187.135 164.971 188.969 164.122C194.305 161.744 199.574 159.299 204.877 156.853C205.345 157.686 205.511 158.66 205.343 159.604C205.438 165.567 205.85 171.519 206.577 177.436C206.944 179.984 208.211 180.833 210.746 180.018C214.081 179.067 217.816 178.387 221.351 177.674C226.92 176.553 224.052 173.428 222.618 166.873C221.017 159.434 222.618 152.098 223.418 144.727C224.218 137.357 221.951 134.062 214.614 132.33C208.281 131.455 202.041 129.989 195.973 127.948C194.516 127.437 193.199 126.583 192.127 125.456C191.055 124.328 190.259 122.96 189.803 121.461C180.957 96.4525 175.439 70.35 173.396 43.8495C172.662 33.3881 172.996 22.9267 172.829 12.4314C172.829 9.51031 171.262 9.23859 170.828 12.1257C169.967 18.1424 169.554 24.217 169.594 30.2973C169.35 49.6755 171.444 69.011 175.83 87.8689C178.213 100.239 181.903 112.311 186.835 123.872C187.414 125.958 188.733 127.75 190.537 128.899C195.571 131.744 201.038 133.707 206.711 134.707C210.346 135.013 214.781 135.625 216.715 135.964C223.385 137.153 221.351 140.21 219.85 148.056C218.293 154.628 217.999 161.444 218.983 168.13C219.416 170.643 222.318 173.53 220.784 175.33C219.25 177.131 215.715 176.859 213.047 177.504L212.38 177.674C210.379 178.014 209.445 177.674 209.379 175.228C209.178 169.047 208.678 162.865 208.778 156.649C208.778 155.528 208.778 154.204 207.945 153.694C207.111 153.185 206.344 153.694 205.31 153.932C198.438 155.816 191.835 158.602 185.668 162.22C185.205 162.372 184.795 162.655 184.484 163.036C184.173 163.416 183.975 163.879 183.912 164.37C183.849 164.861 183.924 165.36 184.129 165.809C184.333 166.258 184.659 166.639 185.068 166.907C186.969 168.809 186.568 169.624 190.937 180.052C194.272 188.169 194.272 189.086 200.308 187.116C203.508 185.778 206.875 184.898 210.312 184.501C214.748 184.195 210.612 187.898 212.447 196.525C212.913 198.597 212.08 198.767 210.479 198.767H188.036C187.408 198.829 186.777 198.693 186.228 198.377C185.679 198.061 185.239 197.58 184.968 197C181.835 192.172 178.115 187.767 173.896 183.89C172.962 183.041 171.762 181.546 170.561 182.837C169.361 184.127 171.095 184.977 171.862 185.758C175.864 189.868 178.898 194.725 182.867 199.344C178.965 200.567 174.43 200.533 171.195 203.284C171.195 203.08 171.195 202.944 170.961 202.741C166.321 190.945 158.229 180.889 147.785 173.938C146.084 172.783 141.115 171.798 143.816 169.013C144.971 168.1 145.916 166.941 146.584 165.616C150.612 157.612 153.959 149.272 156.588 140.685C156.867 140.006 156.961 139.263 156.861 138.535C156.762 137.806 156.472 137.117 156.022 136.542C154.554 134.741 153.254 132.771 151.82 130.903C131.63 104.837 117.216 74.6297 109.568 42.355C108.1 35.9355 105.999 36.445 107.267 42.8985C113.185 74.0648 126.411 103.313 145.817 128.152ZM167.56 202.605C165.322 202.709 163.079 202.515 160.89 202.027C160.516 201.913 160.168 201.722 159.87 201.465C159.571 201.208 159.328 200.89 159.156 200.533C158.67 199.075 158.389 197.554 158.323 196.015C158.022 192.958 157.422 189.936 157.255 186.743C161.678 191.291 165.179 196.681 167.56 202.605Z" fill="#3C270B"/>
<path d="M543.394 366.625C543.41 368.412 544.117 370.121 545.361 371.38C565.884 393.991 591.665 410.975 620.328 420.766C623.663 421.887 625.964 422.702 627.831 423.246C629.699 423.789 631.166 422.533 629.098 421.514C620.294 417.166 603.52 411.324 590.581 403.308C575.308 393.696 559.801 384.219 548.896 368.969C547.913 367.644 547.354 366.043 547.295 364.384C546.515 348.543 546.515 332.672 547.295 316.832C547.552 315.633 547.471 314.385 547.062 313.231C543.019 306.173 538.564 299.368 533.723 292.852C528.587 285.685 528.22 285.583 523.051 292.478C521.784 294.109 521.15 293.667 520.083 292.716C517.015 290.101 513.947 287.553 510.879 284.972C509.853 284.1 508.626 283.508 507.313 283.252C506 282.997 504.645 283.086 503.376 283.511C500.079 284.378 496.856 285.514 493.738 286.908C491.804 287.893 491.137 287.248 490.103 285.889C488.369 283.647 486.535 281.541 484.668 279.47C483.967 278.688 483.167 277.567 481.9 278.213C480.08 279.009 478.365 280.036 476.797 281.27C469.094 288.267 459.89 292.886 451.086 298.253C449.619 299.136 450.219 299.883 450.819 300.596C453.77 304.391 455.783 308.853 456.688 313.605C457.289 316.152 458.889 318.564 462.091 317.851C464.903 317.275 467.57 316.119 469.928 314.454C470.628 313.979 473.263 311.227 475.53 308.952L476.531 307.933C476.666 307.797 476.828 307.694 477.007 307.629C477.186 307.565 477.376 307.541 477.564 307.559C477.754 307.576 477.938 307.633 478.104 307.727C478.271 307.82 478.416 307.948 478.532 308.103C478.932 308.714 479.198 309.427 479.565 310.005C484.401 317.613 487.369 326.444 493.772 333.033C494.305 333.577 494.138 333.95 493.772 334.426L483.3 346.348C481.725 341.092 479.315 336.135 476.164 331.675C475.42 330.537 474.39 329.622 473.183 329.025C471.975 328.427 470.632 328.17 469.294 328.278C465.99 328.643 462.845 329.91 460.19 331.946C456.055 334.969 454.921 336.871 458.889 342.136C466.473 351.952 472.732 362.759 477.498 374.268C477.824 375.401 478.548 376.373 479.532 376.999C480.515 377.625 481.69 377.862 482.833 377.664C488.672 377.1 494.563 377.641 500.208 379.26C507.244 380.789 514.548 382.283 519.35 388.669C523.585 394.307 527.92 399.878 531.822 405.652C548.793 431.434 569.389 454.539 592.949 474.228C597.767 478.726 603.15 482.552 608.956 485.607C613.258 487.747 615.392 487.882 607.255 481.531C573.243 454.849 544.416 421.939 522.251 384.491C520.617 381.74 520.517 381.808 517.649 382.215C517.349 382.215 517.049 381.978 516.749 381.808C511.103 378.573 504.938 376.388 498.54 375.354C493.538 374.777 488.769 373.452 483.767 374.913C480.132 376.068 480.266 374.132 478.898 370.26C475.195 360.183 469.764 350.856 462.858 342.713C457.456 335.92 457.189 335.411 465.526 332.048C466.059 331.811 466.593 331.709 467.093 331.505C468.26 330.975 469.575 330.889 470.799 331.263C472.023 331.637 473.075 332.446 473.763 333.543C476.185 337.071 478.189 340.879 479.732 344.887C480.432 346.552 480.866 348.284 481.766 350.05C481.885 350.275 482.064 350.461 482.282 350.588C482.501 350.714 482.749 350.775 483 350.763C483.247 350.758 483.488 350.686 483.699 350.554C483.91 350.423 484.083 350.237 484.201 350.016C485.765 347.62 487.625 345.44 489.737 343.529C492.567 340.504 495.186 337.281 497.573 333.882C497.974 333.203 499.274 331.844 497.573 331.505C494.772 330.893 494.238 328.55 493.005 326.614C490.003 321.349 487.202 315.983 484.301 310.684C483.352 308.765 482.127 307.002 480.666 305.453C479.332 304.163 478.331 303.449 476.631 304.944C472.092 309.888 466.334 313.501 459.957 315.405C459.716 309.648 457.551 304.147 453.821 299.815C473.396 288.335 476.631 286.806 479.465 281.949C480.666 279.809 482.567 279.605 483.801 282.119C484.9 283.951 486.173 285.669 487.602 287.248C492.938 294.041 497.607 301.208 504.743 306.404C505.577 307.016 506.544 308.306 507.544 307.084C508.545 305.861 507.311 305.08 506.577 304.332C502.823 300.616 499.272 296.692 495.939 292.58C494.505 290.814 495.072 289.184 497.106 288.335C503.776 285.447 509.245 286.195 513.781 291.969C514.311 292.542 514.891 293.065 515.515 293.531C520.617 297.811 521.384 298.456 524.285 294.686C529.888 287.35 526.353 288.674 541.826 310.039C543.57 312.144 544.421 314.868 544.194 317.613C542.775 333.91 542.508 350.289 543.394 366.625Z" fill="#3C270B"/>
<path d="M350.041 119.355C364.081 85.0162 363.38 64.3991 396.328 15.1829C398.062 12.6015 399.663 9.91827 401.197 7.16705C401.197 6.8274 402.664 1.90239 398.329 7.16705C371.984 40.0797 358.311 78.4948 348.507 118.37C348.24 119.695 349.674 120.374 350.041 119.355Z" fill="#3C270B"/>
<path d="M249.163 322.334C250.063 321.349 250.763 322.029 251.53 322.334C290.414 329.127 282.444 328.618 321.562 329.773C352.242 328.244 344.638 328.72 378.72 325.901C382.912 325.745 387.089 325.314 391.226 324.61C391.898 324.533 392.516 324.199 392.956 323.676C393.395 323.153 393.623 322.479 393.594 321.791C393.681 320.999 393.518 320.2 393.128 319.51C392.738 318.819 392.142 318.274 391.426 317.953C390.659 317.647 389.092 317.104 389.725 319.108C390.359 321.112 388.925 321.723 387.324 321.927C361.11 325.954 334.57 327.342 308.089 326.071C278.943 324.236 271.406 321.791 248.329 318.53C247.462 318.53 246.495 318.53 246.061 319.413C245.904 319.838 245.898 320.305 246.044 320.733C246.191 321.161 246.48 321.524 246.862 321.757C247.529 322.198 248.162 323.455 249.163 322.334Z" fill="#3C270B"/>
<path d="M371.751 613.962C366.448 614.166 361.113 614.506 355.944 614.845L348.54 615.321C345.205 615.559 341.637 616.034 338.302 616.51C333.548 617.288 328.744 617.708 323.929 617.766C313.925 617.766 303.687 617.121 293.916 616.544C286.646 616.136 279.143 615.728 271.74 615.491C267.604 615.491 263.202 615.219 258.867 614.879C255.832 614.608 252.731 614.472 249.73 614.336C245.728 614.336 241.593 613.962 237.558 613.521C236.524 613.521 235.09 613.215 233.689 613.011C229.654 612.434 229.654 612.434 229.587 613.011C229.521 613.589 229.587 613.487 236.857 615.117C241.238 616.076 245.718 616.487 250.197 616.34C252.422 616.299 254.649 616.378 256.866 616.578C264.903 617.529 273.073 617.868 280.977 618.208C285.946 618.412 290.981 618.616 296.15 618.989C303.82 619.533 311.724 620.008 319.761 620.008C327.143 620.057 334.52 619.581 341.837 618.582C347.507 617.8 353.309 617.427 358.945 617.087C362.513 616.883 366.215 616.646 369.85 616.306C369.85 616.306 374.919 615.762 374.852 614.642C374.719 614.064 374.252 613.86 371.751 613.962Z" fill="#3C270B"/>
<path d="M356.711 343.902C325.997 344.208 291.882 344.208 258.567 338.977C254.599 338.366 257.033 340.506 258.567 340.778H258.834C272.834 343.281 286.983 344.824 301.186 345.397C314.959 346.008 326.564 346.314 337.202 346.314C342.304 346.314 347.206 346.314 351.975 346.11C356.744 345.906 372.618 343.733 356.711 343.902Z" fill="#3C270B"/>
<path d="M386.157 353.141C386.149 353.066 386.114 352.996 386.058 352.946C386.003 352.896 385.931 352.869 385.857 352.869C376.886 352.869 367.782 353.277 358.978 353.752C344.099 355.06 329.137 355.06 314.258 353.752C314.184 353.744 314.109 353.759 314.044 353.796C313.978 353.832 313.925 353.888 313.892 353.956C313.853 354.017 313.832 354.087 313.832 354.16C313.832 354.232 313.853 354.303 313.892 354.364C316.326 356.367 329.532 357.319 344.138 357.319C360.812 357.319 379.654 356.062 385.857 353.65C385.916 353.652 385.975 353.638 386.028 353.609C386.08 353.58 386.124 353.538 386.154 353.486C386.185 353.434 386.201 353.374 386.202 353.314C386.202 353.253 386.187 353.193 386.157 353.141Z" fill="#3C270B"/>
<path d="M436.379 602.006C435.438 601.576 434.385 601.469 433.378 601.7L395.695 608.969C393.227 609.41 392.727 609.818 392.06 611.652C391.86 612.297 392.76 612.026 393.093 611.924C399.129 610.361 405.432 609.274 411.502 608.222C419.127 607.05 426.677 605.417 434.112 603.331L436.379 602.651C436.446 602.629 436.504 602.586 436.545 602.528C436.587 602.47 436.609 602.4 436.609 602.329C436.609 602.257 436.587 602.187 436.545 602.129C436.504 602.071 436.446 602.028 436.379 602.006Z" fill="#3C270B"/>
<path d="M265.47 361.36L250.397 359.322C249.53 359.322 248.896 359.322 248.796 359.934C248.696 360.545 248.796 360.783 249.996 361.19C252.926 362.034 255.931 362.581 258.967 362.821C261.068 363.092 263.236 363.33 265.303 363.806C265.461 363.817 265.619 363.796 265.769 363.745C265.919 363.694 266.057 363.613 266.177 363.507C266.296 363.402 266.393 363.273 266.464 363.129C266.534 362.985 266.576 362.828 266.587 362.668C266.598 362.507 266.578 362.346 266.528 362.193C266.477 362.041 266.398 361.9 266.294 361.778C266.191 361.657 266.065 361.557 265.923 361.486C265.782 361.414 265.628 361.371 265.47 361.36Z" fill="#3C270B"/>
<path d="M191.07 600.377C188.836 599.527 186.402 598.101 184.134 597.456C179.098 596.097 183.334 600.852 184.134 601.328C186.566 602.622 189.211 603.451 191.937 603.773C197.14 604.215 191.504 600.58 191.07 600.377Z" fill="#3C270B"/>
</svg>
