<svg width="38" height="38" viewBox="0 0 38 38" fill="none" xmlns="http://www.w3.org/2000/svg">
<rect x="0.475098" y="0.444824" width="37.4253" height="36.5747" rx="6.8046" fill="#FF9C07" fill-opacity="0.2"/>
<path d="M23.3179 8.85571H14.6905C10.943 8.85571 8.70898 11.1001 8.70898 14.8475V23.4646C8.70898 27.2121 10.943 29.4462 14.6905 29.4462H23.3076C27.0551 29.4462 29.2891 27.2121 29.2891 23.4646V14.8475C29.2994 11.1001 27.0654 8.85571 23.3179 8.85571ZM18.5615 24.0824C18.5615 24.3912 18.4071 24.6692 18.1394 24.8339C17.9953 24.9266 17.8409 24.9677 17.6761 24.9677C17.5423 24.9677 17.4085 24.9369 17.2746 24.8751L13.6713 23.0734C13.1565 22.8057 12.8271 22.2807 12.8271 21.6939V18.2861C12.8271 17.9773 12.9815 17.6993 13.2492 17.5346C13.5169 17.3699 13.836 17.3596 14.114 17.4934L17.7173 19.2951C18.2424 19.5627 18.5718 20.0878 18.5718 20.6746V24.0824H18.5615ZM18.3453 18.5744L14.4743 16.4845C14.1963 16.33 14.0213 16.0315 14.0213 15.6917C14.0213 15.3623 14.1963 15.0534 14.4743 14.899L18.3453 12.8091C18.7571 12.5929 19.241 12.5929 19.6528 12.8091L23.5238 14.899C23.8018 15.0534 23.9768 15.352 23.9768 15.6917C23.9768 16.0315 23.8018 16.33 23.5238 16.4845L19.6528 18.5744C19.4469 18.6877 19.2204 18.7391 18.9939 18.7391C18.7674 18.7391 18.5512 18.6877 18.3453 18.5744ZM25.1813 21.6939C25.1813 22.2807 24.8519 22.816 24.3268 23.0734L20.7235 24.8751C20.6 24.9369 20.4661 24.9677 20.322 24.9677C20.1573 24.9677 20.0028 24.9266 19.8587 24.8339C19.591 24.6692 19.4366 24.3912 19.4366 24.0824V20.6746C19.4366 20.0878 19.7661 19.5525 20.2911 19.2951L23.8944 17.4934C24.1724 17.3596 24.4916 17.3699 24.7592 17.5346C25.0269 17.6993 25.1813 17.9773 25.1813 18.2861V21.6939Z" fill="#FFB849"/>
</svg>
