<svg width="38" height="38" viewBox="0 0 38 38" fill="none" xmlns="http://www.w3.org/2000/svg">
<rect x="0.563232" y="0.562988" width="37.4253" height="36.5747" rx="6.8046" fill="#2F80ED" fill-opacity="0.2"/>
<path d="M28.6323 13.1356V10.8496C28.6323 9.58896 27.5832 8.56372 26.2932 8.56372H11.0892C9.15477 8.56372 7.58057 10.1021 7.58057 11.9926V25.7081C7.58057 28.2238 9.67872 29.137 11.0892 29.137H28.6323C29.9223 29.137 30.9714 28.1118 30.9714 26.8511V15.4215C30.9714 14.1608 29.9223 13.1356 28.6323 13.1356ZM26.2932 23.4222H23.9541V18.8504H26.2932V23.4222ZM11.0892 13.1356C10.7881 13.1224 10.5037 12.9962 10.2954 12.7833C10.0871 12.5704 9.97079 12.2872 9.97079 11.9926C9.97079 11.698 10.0871 11.4148 10.2954 11.2019C10.5037 10.989 10.7881 10.8628 11.0892 10.8496H26.2932V13.1356H11.0892Z" fill="#3380FF"/>
</svg>
